<mxfile host="app.diagrams.net" modified="2023-10-25T02:48:37.108Z" agent="Mozilla/5.0 (Windows NT 10.0; Win64; x64) AppleWebKit/537.36 (KHTML, like Gecko) Chrome/116.0.5845.888 YaBrowser/23.9.2.888 Yowser/2.5 Safari/537.36" version="22.0.6" etag="mi1KOUDUyvwLr8fvnEAl" type="device">
  <diagram id="zHkOga5eUSbDPKkRdJJo" name="Страница — 1">
    <mxGraphModel dx="723" dy="422" grid="1" gridSize="10" guides="1" tooltips="1" connect="1" arrows="1" fold="1" page="1" pageScale="1" pageWidth="827" pageHeight="1169" math="0" shadow="0">
      <root>
        <mxCell id="0" />
        <mxCell id="1" parent="0" />
        <mxCell id="iOPAAn9KAWMjr5UfQ8-h-1" value="" style="ellipse;html=1;shape=endState;fillColor=#000000;strokeColor=#ff0000;" vertex="1" parent="1">
          <mxGeometry x="414" y="460" width="30" height="30" as="geometry" />
        </mxCell>
        <mxCell id="iOPAAn9KAWMjr5UfQ8-h-2" value="" style="ellipse;whiteSpace=wrap;html=1;aspect=fixed;fillColor=#000000;" vertex="1" parent="1">
          <mxGeometry x="410" width="30" height="30" as="geometry" />
        </mxCell>
        <mxCell id="iOPAAn9KAWMjr5UfQ8-h-18" style="edgeStyle=orthogonalEdgeStyle;rounded=0;orthogonalLoop=1;jettySize=auto;html=1;endArrow=open;endFill=0;" edge="1" parent="1" source="iOPAAn9KAWMjr5UfQ8-h-3" target="iOPAAn9KAWMjr5UfQ8-h-4">
          <mxGeometry relative="1" as="geometry" />
        </mxCell>
        <mxCell id="iOPAAn9KAWMjr5UfQ8-h-3" value="Формирование формы регистрации спортсмена" style="rounded=1;whiteSpace=wrap;html=1;" vertex="1" parent="1">
          <mxGeometry x="365" y="70" width="120" height="60" as="geometry" />
        </mxCell>
        <mxCell id="iOPAAn9KAWMjr5UfQ8-h-13" style="rounded=0;orthogonalLoop=1;jettySize=auto;html=1;entryX=1;entryY=1;entryDx=0;entryDy=0;endArrow=open;endFill=0;" edge="1" parent="1" source="iOPAAn9KAWMjr5UfQ8-h-4" target="iOPAAn9KAWMjr5UfQ8-h-11">
          <mxGeometry relative="1" as="geometry" />
        </mxCell>
        <mxCell id="iOPAAn9KAWMjr5UfQ8-h-4" value="Занесение данных о выданном тагере, и команде спортсмены" style="rounded=1;whiteSpace=wrap;html=1;" vertex="1" parent="1">
          <mxGeometry x="365" y="190" width="120" height="60" as="geometry" />
        </mxCell>
        <mxCell id="iOPAAn9KAWMjr5UfQ8-h-15" style="rounded=0;orthogonalLoop=1;jettySize=auto;html=1;endArrow=open;endFill=0;" edge="1" parent="1" source="iOPAAn9KAWMjr5UfQ8-h-5" target="iOPAAn9KAWMjr5UfQ8-h-10">
          <mxGeometry relative="1" as="geometry" />
        </mxCell>
        <mxCell id="iOPAAn9KAWMjr5UfQ8-h-21" style="rounded=0;orthogonalLoop=1;jettySize=auto;html=1;entryX=0.5;entryY=0;entryDx=0;entryDy=0;" edge="1" parent="1" source="iOPAAn9KAWMjr5UfQ8-h-5" target="iOPAAn9KAWMjr5UfQ8-h-1">
          <mxGeometry relative="1" as="geometry" />
        </mxCell>
        <mxCell id="iOPAAn9KAWMjr5UfQ8-h-5" value="Отправка данных на сервер" style="rounded=1;whiteSpace=wrap;html=1;" vertex="1" parent="1">
          <mxGeometry x="369" y="340" width="120" height="60" as="geometry" />
        </mxCell>
        <mxCell id="iOPAAn9KAWMjr5UfQ8-h-7" style="edgeStyle=orthogonalEdgeStyle;rounded=0;orthogonalLoop=1;jettySize=auto;html=1;endArrow=open;endFill=0;" edge="1" parent="1" source="iOPAAn9KAWMjr5UfQ8-h-6" target="iOPAAn9KAWMjr5UfQ8-h-3">
          <mxGeometry relative="1" as="geometry" />
        </mxCell>
        <mxCell id="iOPAAn9KAWMjr5UfQ8-h-6" value="Данные о спортсменах" style="rounded=0;whiteSpace=wrap;html=1;" vertex="1" parent="1">
          <mxGeometry x="600" y="70" width="120" height="60" as="geometry" />
        </mxCell>
        <mxCell id="iOPAAn9KAWMjr5UfQ8-h-9" style="edgeStyle=orthogonalEdgeStyle;rounded=0;orthogonalLoop=1;jettySize=auto;html=1;" edge="1" parent="1" source="iOPAAn9KAWMjr5UfQ8-h-8" target="iOPAAn9KAWMjr5UfQ8-h-4">
          <mxGeometry relative="1" as="geometry" />
        </mxCell>
        <mxCell id="iOPAAn9KAWMjr5UfQ8-h-8" value="Информация о командах, и тагерах" style="rounded=0;whiteSpace=wrap;html=1;" vertex="1" parent="1">
          <mxGeometry x="600" y="190" width="120" height="60" as="geometry" />
        </mxCell>
        <mxCell id="iOPAAn9KAWMjr5UfQ8-h-10" value="Заполненная форма регистрации спортсмена" style="rounded=0;whiteSpace=wrap;html=1;" vertex="1" parent="1">
          <mxGeometry x="600" y="360" width="120" height="60" as="geometry" />
        </mxCell>
        <mxCell id="iOPAAn9KAWMjr5UfQ8-h-12" style="rounded=0;orthogonalLoop=1;jettySize=auto;html=1;entryX=0;entryY=0.5;entryDx=0;entryDy=0;endArrow=open;endFill=0;" edge="1" parent="1" source="iOPAAn9KAWMjr5UfQ8-h-11" target="iOPAAn9KAWMjr5UfQ8-h-3">
          <mxGeometry relative="1" as="geometry" />
        </mxCell>
        <mxCell id="iOPAAn9KAWMjr5UfQ8-h-14" style="edgeStyle=orthogonalEdgeStyle;rounded=0;orthogonalLoop=1;jettySize=auto;html=1;entryX=0;entryY=0.5;entryDx=0;entryDy=0;exitX=0.25;exitY=1;exitDx=0;exitDy=0;" edge="1" parent="1" source="iOPAAn9KAWMjr5UfQ8-h-11" target="iOPAAn9KAWMjr5UfQ8-h-5">
          <mxGeometry relative="1" as="geometry" />
        </mxCell>
        <mxCell id="iOPAAn9KAWMjr5UfQ8-h-11" value="&lt;u&gt;Форма регистрации спортсмена на тренировку&lt;/u&gt;" style="rounded=0;whiteSpace=wrap;html=1;fillColor=#28FCE7;strokeColor=#6c8ebf;" vertex="1" parent="1">
          <mxGeometry x="70" y="50" width="160" height="90" as="geometry" />
        </mxCell>
        <mxCell id="iOPAAn9KAWMjr5UfQ8-h-20" style="rounded=0;orthogonalLoop=1;jettySize=auto;html=1;exitX=0.5;exitY=0;exitDx=0;exitDy=0;entryX=0.5;entryY=0;entryDx=0;entryDy=0;" edge="1" parent="1" source="iOPAAn9KAWMjr5UfQ8-h-16" target="iOPAAn9KAWMjr5UfQ8-h-3">
          <mxGeometry relative="1" as="geometry" />
        </mxCell>
        <mxCell id="iOPAAn9KAWMjr5UfQ8-h-16" value="ActivityInitial" style="text;html=1;strokeColor=none;fillColor=none;align=center;verticalAlign=middle;whiteSpace=wrap;rounded=0;" vertex="1" parent="1">
          <mxGeometry x="395" y="30" width="60" height="30" as="geometry" />
        </mxCell>
        <mxCell id="iOPAAn9KAWMjr5UfQ8-h-17" value="ActivityFinal" style="text;html=1;strokeColor=none;fillColor=none;align=center;verticalAlign=middle;whiteSpace=wrap;rounded=0;" vertex="1" parent="1">
          <mxGeometry x="399" y="490" width="60" height="30" as="geometry" />
        </mxCell>
        <mxCell id="iOPAAn9KAWMjr5UfQ8-h-19" style="edgeStyle=orthogonalEdgeStyle;rounded=0;orthogonalLoop=1;jettySize=auto;html=1;endArrow=open;endFill=0;exitX=0.5;exitY=1;exitDx=0;exitDy=0;" edge="1" parent="1" source="iOPAAn9KAWMjr5UfQ8-h-4">
          <mxGeometry relative="1" as="geometry">
            <mxPoint x="424.57" y="280" as="sourcePoint" />
            <mxPoint x="424.57" y="340" as="targetPoint" />
          </mxGeometry>
        </mxCell>
      </root>
    </mxGraphModel>
  </diagram>
</mxfile>
